<svg id="ILLU" xmlns="http://www.w3.org/2000/svg" width="90" height="50" viewBox="0 0 90 50"><defs><style>.cls-1{fill:#81949c;}</style></defs><title>01-C24-Illustrationen</title><path class="cls-1" d="M66.71,38.84c-1.76-3.1-4-3.71-6.83-4.49-.89-.24-1.9-.52-3-.9a9.35,9.35,0,0,1-5-4c4-2.81,7.58-7.53,7.58-13.06C59.44,7.81,53.88,2,45.6,2,37.1,2,31.16,7.83,31.16,16.1c0,5.23,3.4,10,6.58,12.77l.5.41a9.32,9.32,0,0,1-5.12,4.17c-1.11.38-2.12.66-3,.9-2.83.78-5.07,1.39-6.83,4.49-1.91,3.35-2.39,9.54-2.41,9.81l-.08.85H69.2l-.08-.85C69.1,48.38,68.61,42.19,66.71,38.84ZM33.16,16.1C33.16,9,38.28,4,45.6,4,52.68,4,57.44,9,57.44,16.4c0,7.18-7.21,13-12,13.74-1.7.26-4.09-.78-6.4-2.77C35.47,24.27,33.16,19.85,33.16,16.1ZM25,39.6c1.35-2.37,2.87-2.68,5.62-3.43.92-.25,2-.48,3.13-.88a11.33,11.33,0,0,0,6.1-4.87,10.38,10.38,0,0,0,4.56,1.7l-3.94,7.7,4,7.68H23C23.2,46.5,23.78,41.81,25,39.6Zm20.49,7.9,4-7.73L45.56,32c.06,0,.13.05.19,0a13.46,13.46,0,0,0,4.42-1.57,11.36,11.36,0,0,0,6.05,4.84c1.17.4,2.21.69,3.13.95,2.75.75,4.27.95,5.62,3.32,1.25,2.21,1.84,6.9,2.05,7.9Z"/></svg>
