<?xml version="1.0" encoding="utf-8"?>
<!-- Generator: Adobe Illustrator 20.0.0, SVG Export Plug-In . SVG Version: 6.00 Build 0)  -->
<svg version="1.1" xmlns="http://www.w3.org/2000/svg" xmlns:xlink="http://www.w3.org/1999/xlink" x="0px" y="0px"
	 width="90" height="50" viewBox="0 0 90 50" style="enable-background:new 0 0 90 50;" xml:space="preserve">
<style type="text/css">
	.st0{display:none;}
	.st1{fill:#FF7BAC;}
	.st2{fill:#80939B;}
	.st3{display:inline;}
	.st4{fill:none;stroke:#000000;stroke-width:7.055556e-02;stroke-miterlimit:10;}
	.st5{display:inline;fill:none;stroke:#000000;stroke-width:2;stroke-miterlimit:10;}
	.st6{fill:none;stroke:#000000;stroke-width:2;stroke-miterlimit:10;}
	.st7{fill:#03181C;}
	.st8{display:inline;fill:none;stroke:#03181C;stroke-width:2;stroke-miterlimit:10;}
	.st9{display:inline;fill:none;}
	.st10{clip-path:url(#SVGID_2_);}
	.st11{fill:none;stroke:#81949C;stroke-width:2;stroke-miterlimit:10;}
	.st12{fill:#81949C;}
	.st13{display:inline;fill:none;stroke:#81949C;stroke-width:2;stroke-miterlimit:10;}
	.st14{display:inline;fill:#81949C;}
	.st15{clip-path:url(#SVGID_4_);}
	.st16{display:inline;fill:none;stroke:#1D1D1B;stroke-width:2;stroke-miterlimit:10;}
	.st17{display:inline;fill:none;stroke:#1D2939;stroke-width:2;stroke-miterlimit:10;}
	.st18{stroke:#000000;stroke-width:0.25;stroke-miterlimit:10;}
	.st19{stroke:#000000;stroke-width:0.5;stroke-miterlimit:10;}
	.st20{fill:none;stroke:#81949C;stroke-miterlimit:10;}
	.st21{display:inline;fill:none;stroke:#81949C;stroke-miterlimit:10;}
	.st22{fill:#1D1D1B;}
	.st23{fill:#51A700;}
	.st24{fill:#B30000;}
</style>
<g id="Raster" class="st0">
	<g class="st3">
		<rect x="-2" y="-23" class="st4" width="96" height="96"/>
		<circle class="st4" cx="46" cy="25" r="48"/>
		<circle class="st4" cx="46" cy="25" r="24"/>
		<circle class="st4" cx="46" cy="25" r="36"/>
		<line class="st4" x1="-2" y1="25" x2="94" y2="25"/>
		<line class="st4" x1="46" y1="-23" x2="46" y2="73"/>
	</g>
</g>
<g id="outlines" class="st0">
</g>
<g id="ILLU">
	<g>
		<path class="st12" d="M47,1.3L28.9,2.6l-1.3,18.3l27.8,27.8L75,29.3L47,1.3z M29.7,20.1l1.1-15.6l15.5-1.1l25.9,25.9L55.4,45.9
			L29.7,20.1z"/>
		<path class="st12" d="M40.5,9C38,9,36,11,36,13.5s2,4.5,4.5,4.5s4.5-2,4.5-4.5S43,9,40.5,9z M40.5,16c-1.4,0-2.5-1.1-2.5-2.5
			s1.1-2.5,2.5-2.5s2.5,1.1,2.5,2.5S41.9,16,40.5,16z"/>
	</g>
</g>
</svg>
