<svg xmlns="http://www.w3.org/2000/svg" width="90" height="50" viewBox="0 0 90 50"><defs><style>.cls-1{fill:#81949c;}</style></defs><title>01-C24-Illustrationen</title><g id="ILLU"><path class="cls-1" d="M45,1A24,24,0,1,0,69,25,24,24,0,0,0,45,1ZM23,26h8a38.7,38.7,0,0,0,1.5,10H26A21.84,21.84,0,0,1,23,26ZM46,12V3.08C49.55,3.62,52.67,7,54.67,12Zm9.39,2A36.35,36.35,0,0,1,57,24H46V14ZM44,3.08V12H35.33C37.33,7,40.45,3.62,44,3.08ZM44,14V24H33a36.35,36.35,0,0,1,1.6-10ZM31,24H23A21.84,21.84,0,0,1,26,14h6.55A38.7,38.7,0,0,0,31,24Zm2,2H44V36H34.61A36.35,36.35,0,0,1,33,26ZM44,38v8.92C40.45,46.38,37.33,43,35.33,38Zm2,8.92V38h8.67C52.67,43,49.55,46.38,46,46.92ZM46,36V26H57a36.35,36.35,0,0,1-1.6,10ZM59,26h8A21.84,21.84,0,0,1,64,36H57.49A38.7,38.7,0,0,0,59,26Zm0-2a38.7,38.7,0,0,0-1.5-10H64A21.84,21.84,0,0,1,67,24H59Zm3.75-12H56.83A21.22,21.22,0,0,0,52,4.16,22.09,22.09,0,0,1,62.73,12ZM38,4.16A21.22,21.22,0,0,0,33.17,12H27.27A22.09,22.09,0,0,1,38,4.16ZM27.27,38h5.91A21.22,21.22,0,0,0,38,45.84,22.09,22.09,0,0,1,27.27,38ZM52,45.84A21.22,21.22,0,0,0,56.83,38h5.91A22.09,22.09,0,0,1,52,45.84Z"/></g></svg>
